<?xml version="1.0" encoding="UTF-8" standalone="no"?><!DOCTYPE svg PUBLIC "-//W3C//DTD SVG 1.1//EN" "http://www.w3.org/Graphics/SVG/1.1/DTD/svg11.dtd"><svg width="100%" height="100%" viewBox="0 0 4500 4500" version="1.1" xmlns="http://www.w3.org/2000/svg" xmlns:xlink="http://www.w3.org/1999/xlink" xml:space="preserve" xmlns:serif="http://www.serif.com/" style="fill-rule:evenodd;clip-rule:evenodd;stroke-linejoin:round;stroke-miterlimit:2;"><g><path d="M866.216,3883.44c-163.477,-58.626 -311.32,-157.371 -443.656,-295.771c-53.039,-82.46 -49.203,-151.871 -0,-211.264c113.322,-63.866 234.145,-74.049 359.15,-21.127c-113.154,-116.301 -217.37,-274.221 -316.897,-485.908c-15.533,-91.918 2.998,-160.247 63.379,-211.265c63.675,-31.774 133.963,-32.45 211.265,0c205.914,87.214 554.908,808.434 485.908,1056.32c-62.766,50.471 -104.85,85.731 -126.758,147.885c-17.979,39.422 -18.993,60.38 -0,105.633c21.218,29.008 90.188,38.595 126.758,-21.127c25.58,-68.523 11.282,-125.069 63.38,-169.012c77.513,-61.203 196.201,-71.28 295.77,-63.379c119.027,9.866 171.758,14.598 232.391,63.379l338.024,253.518c65.872,49.541 189.536,30.894 190.138,-21.127l-0,-316.896l929.564,-0c45.887,-21.211 75.59,-55.225 84.506,-105.633l-0,-866.185l887.311,0c43.52,-14.894 79.626,-47.935 105.632,-105.632l0,-1098.58c-9.866,-45.569 -35.725,-75.928 -84.506,-84.505l-908.437,-0l-0,-887.312c3.317,-46.478 -16.099,-82.499 -63.38,-105.632l-1140.83,-0c-35.493,14.429 -57.084,35.345 -63.38,63.379c177.04,188.153 300.44,434.276 380.276,654.921c175.181,95.259 358.538,172.159 549.288,232.391c43.267,9.042 55.415,53.492 42.253,126.758c-49.076,24.317 -83.787,59.915 -105.632,105.633c-3.127,54.274 7.52,89.066 63.379,105.632c47.71,14.149 67.859,26.957 105.633,21.126c16.014,37.014 16.352,72.485 -0,105.633c-5.324,66.823 -43.88,135.272 -105.633,169.011c84.992,-21.126 126.759,-42.253 147.886,-21.126c42.253,63.379 21.126,84.506 -0,147.885c-42.253,63.38 -41.282,66.041 -42.253,105.632c61.795,134.111 98.069,212.617 126.758,274.644c30.444,71.429 27.93,141.78 0,211.265c-140.85,107.787 -302.805,166.244 -443.655,190.138c-150.822,23.218 -268.665,81.569 -359.15,169.012c-56.387,46.562 -95.682,104.935 -126.759,169.011c-70.144,127.549 -71.013,351.832 -63.379,591.541l-0,84.506c-31.162,14.979 -33.154,25.58 -84.506,0c-113.745,-107.196 -246.799,-206.089 -401.403,-295.77c-131.924,-42.031 -445.865,-6.351 -507.035,42.253c3.486,-142.012 -16.499,-282.461 -42.253,-422.53c-31.505,-143.37 -96.417,-292.814 -169.011,-443.655c-121.351,-203.068 -258.63,-326.573 -401.403,-422.529c-64.161,-35.324 -142.942,-62.788 -232.391,-84.506c-115.562,-16.521 -179.406,34.288 -211.265,126.759c-2.059,99.534 11.726,121.6 42.253,211.264c80.027,235.053 169.012,359.15 253.518,528.162c-97.647,-2.451 -191.047,-1.838 -253.518,21.126c-57.126,22.415 -84.354,43.75 -105.632,126.759c-13.325,102.133 34.058,167.039 105.632,253.517c80.325,97.051 149.582,156.469 211.265,190.138c131.723,62.26 265.792,93.971 401.403,105.633Z" style="fill:#ff5858;"/></g><g><path d="M1795.78,587.71c39.823,104.069 69.21,187.899 63.379,295.771c1.669,133.667 -46.351,236.912 -105.632,359.149c-95.534,158.745 -208.286,313.644 -338.023,464.783c-58.648,73.372 -98.513,130.307 -126.759,211.264c-22.479,-11.472 -29.049,-32.894 -21.127,-63.379c21.127,-69.232 42.253,-122.597 63.38,-169.012l126.758,-232.391c56.81,-83.238 96.569,-176.195 126.759,-274.644c14.408,-42.253 21.929,-84.506 21.127,-126.759c5.028,-188.427 -55.521,-252.271 -126.759,-295.77c56.344,72.485 63.581,227.647 63.379,232.391c-3.93,92.6 -0.543,84.256 -42.253,190.138c-64.372,163.413 -120.747,223.411 -232.391,380.276c-45.425,62.871 -81.085,139.694 -105.632,232.391c-19.884,94.897 -9.38,183.103 21.127,274.644l-63.38,147.885c-18.148,77.83 -25.774,148.646 -21.126,211.265c10.352,139.773 30.232,249.356 63.379,316.897c61.499,146.618 140.491,256.032 232.391,338.023c155.153,171.378 319.348,246.187 485.909,295.771c-149.005,-81.633 -292.538,-184.139 -422.53,-338.024c-71.703,-71.703 -127.709,-170.849 -169.011,-295.77c-35.197,-147.885 -58.161,-316.897 -21.127,-464.782c112.752,117.569 258.694,225.145 422.53,253.517c-139.203,-59.386 -267.673,-158.68 -380.277,-316.896c57.063,-134.745 123.78,-258.631 211.265,-359.15c132.674,-168.78 247.158,-365.298 338.023,-549.288l63.38,-190.138c18.823,-133.815 21.559,-224.271 -21.127,-338.024l-105.632,-190.138Z"/></g></svg>