<?xml version="1.0" encoding="UTF-8" standalone="no"?><!DOCTYPE svg PUBLIC "-//W3C//DTD SVG 1.1//EN" "http://www.w3.org/Graphics/SVG/1.1/DTD/svg11.dtd"><svg width="100%" height="100%" viewBox="0 0 2255 1609" version="1.1" xmlns="http://www.w3.org/2000/svg" xmlns:xlink="http://www.w3.org/1999/xlink" xml:space="preserve" xmlns:serif="http://www.serif.com/" style="fill-rule:evenodd;clip-rule:evenodd;stroke-linejoin:round;stroke-miterlimit:2;"><g><path d="M858.682,914.971c-31.708,-11.639 -60.384,-31.243 -86.052,-58.72c-10.288,-16.372 -9.544,-30.152 -0,-41.944c21.98,-12.679 45.415,-14.701 69.661,-4.194c-21.947,-23.09 -42.161,-54.442 -61.466,-96.469c-3.013,-18.249 0.582,-31.815 12.293,-41.943c12.351,-6.309 25.984,-6.443 40.978,-0c39.939,17.315 107.631,160.501 94.247,209.716c-12.174,10.02 -20.337,17.02 -24.586,29.36c-3.487,7.826 -3.684,11.987 -0,20.971c4.115,5.76 17.493,7.663 24.586,-4.194c4.962,-13.604 2.189,-24.83 12.294,-33.554c15.034,-12.151 38.055,-14.152 57.368,-12.583c23.086,1.958 33.314,2.898 45.075,12.583l65.563,50.331c12.777,9.836 36.763,6.134 36.88,-4.194l-0,-62.915l180.3,0c8.9,-4.211 14.661,-10.964 16.391,-20.971l-0,-171.967l172.104,-0c8.442,-2.957 15.445,-9.517 20.489,-20.972l-0,-218.105c-1.914,-9.047 -6.929,-15.074 -16.391,-16.777l-176.202,0l-0,-176.161c0.643,-9.228 -3.123,-16.379 -12.293,-20.972l-221.278,0c-6.884,2.865 -11.072,7.017 -12.293,12.583c34.339,37.355 58.274,86.219 73.759,130.024c33.979,18.912 69.543,34.18 106.541,46.138c8.392,1.795 10.748,10.62 8.196,25.165c-9.519,4.828 -16.252,11.896 -20.489,20.972c-0.607,10.775 1.458,17.683 12.293,20.972c9.254,2.809 13.162,5.352 20.489,4.194c3.106,7.348 3.171,14.391 -0,20.972c-1.033,13.266 -8.511,26.856 -20.489,33.554c16.485,-4.194 24.586,-8.389 28.684,-4.194c8.196,12.583 4.098,16.777 0,29.36c-8.195,12.583 -8.007,13.111 -8.195,20.972c11.986,26.625 19.021,42.211 24.586,54.526c5.905,14.181 5.417,28.148 0,41.943c-27.319,21.399 -58.733,33.005 -86.052,37.749c-29.254,4.609 -52.111,16.194 -69.662,33.554c-10.936,9.245 -18.558,20.834 -24.586,33.555c-13.605,25.323 -13.774,69.85 -12.293,117.441l-0,16.777c-6.044,2.974 -6.431,5.078 -16.391,0c-22.062,-21.282 -47.87,-40.916 -77.857,-58.72c-25.588,-8.345 -86.481,-1.261 -98.345,8.388c0.676,-28.194 -3.201,-56.078 -8.196,-83.886c-6.111,-28.464 -18.701,-58.134 -32.781,-88.081c-23.538,-40.316 -50.165,-64.836 -77.857,-83.886c-12.445,-7.013 -27.725,-12.466 -45.075,-16.777c-22.415,-3.28 -34.798,6.807 -40.978,25.165c-0.399,19.761 2.275,24.142 8.196,41.944c15.522,46.666 32.782,71.303 49.173,104.858c-18.94,-0.487 -37.056,-0.365 -49.173,4.194c-11.08,4.45 -16.362,8.686 -20.489,25.166c-2.584,20.277 6.606,33.163 20.489,50.332c15.58,19.268 29.013,31.064 40.977,37.749c25.55,12.36 51.554,18.656 77.857,20.971Z" style="fill:#ff5858;"/></g><g><path d="M1038.98,260.658c7.724,20.661 13.424,37.304 12.293,58.72c0.324,26.537 -8.99,47.035 -20.488,71.303c-18.53,31.516 -40.4,62.269 -65.564,92.275c-11.375,14.567 -19.108,25.871 -24.586,41.944c-4.36,-2.278 -5.635,-6.531 -4.098,-12.583c4.098,-13.745 8.195,-24.34 12.293,-33.555l24.586,-46.137c11.019,-16.526 18.731,-34.981 24.587,-54.527c2.794,-8.388 4.253,-16.777 4.097,-25.166c0.976,-37.409 -10.768,-50.084 -24.586,-58.72c10.929,14.391 12.332,45.196 12.293,46.138c-0.762,18.384 -0.105,16.727 -8.195,37.748c-12.486,32.443 -23.421,44.355 -45.075,75.498c-8.811,12.482 -15.728,27.734 -20.489,46.138c-3.857,18.84 -1.819,36.352 4.098,54.526l-12.293,29.36c-3.52,15.452 -5,29.511 -4.098,41.943c2.008,27.75 5.864,49.506 12.293,62.915c11.929,29.108 27.25,50.831 45.075,67.109c30.094,34.024 61.941,48.876 94.248,58.72c-28.901,-16.206 -56.741,-36.557 -81.955,-67.109c-13.907,-14.235 -24.77,-33.919 -32.781,-58.72c-6.827,-29.36 -11.282,-62.915 -4.098,-92.275c21.869,23.341 50.176,44.699 81.954,50.332c-27,-11.79 -51.918,-31.504 -73.759,-62.915c11.068,-26.751 24.009,-51.347 40.978,-71.303c25.733,-33.509 47.939,-72.524 65.563,-109.053l12.293,-37.749c3.651,-26.566 4.182,-44.525 -4.097,-67.109l-20.489,-37.748Z"/></g><g transform="matrix(1,0,0,0.860677,0,-38.8299)"><g transform="matrix(432.075,0,0,432.075,2234.49,1535.06)"></g><text x="25.588px" y="1535.06px" style="font-family:'Arial-BoldMT', 'Arial', sans-serif;font-weight:700;font-size:432.075px;">SAPPHIRE</text></g><g transform="matrix(1,0,0,0.872612,0,-38.0329)"><g transform="matrix(160.902,0,0,160.902,2179.83,1719.04)"></g><text x="33.972px" y="1719.04px" style="font-family:'ArialMT', 'Arial', sans-serif;font-size:160.902px;">SKIN &amp; <tspan x="597.366px 704.687px " y="1719.04px 1719.04px ">AE</tspan>STHETICS CLINIC</text></g></svg>